  <svg width="400" height="40" viewBox="0 0 400 40" xmlns="http://www.w3.org/2000/svg"><path fill="#303133" d="M11.547 40L0 20 11.547 0h360.467v40z"/>
  <text font-family="Lato, HelveticaNeue, Helvetica Neue, Helvetica, Arial, sans-serif" font-size="20" fill="#E8E8E8" x="77" y="27">likwerdna</text>
  <path fill="#1D1D1F" d="M294.547 40L283 20l11.547-20h93.906L400 20l-11.547 20z"/><text font-family="Lato, HelveticaNeue, Helvetica Neue, Helvetica, Arial, sans-serif" font-size="14" fill="#AAA" text-anchor="middle" x="322" y="25">342</text>
  <path fill="#141414" d="M62.237 31.45L68.61 20 62.237 8.55H16.41L10.037 20l6.373 11.45z"/><text font-family="Lato, HelveticaNeue, Helvetica Neue, Helvetica, Arial, sans-serif" font-size="14" fill="#ECB613" x="32" y="18.77" text-anchor="middle" transform="translate(7 6)">5 kyu</text>
  <path d="M15.083 34L7 20l8.083-14H63.58l8.083 14-8.083 14H15.083zm46.614-3.233L67.919 20 61.697 9.233H16.95L10.728 20l6.222 10.767h44.747z" fill="#ECB613"/></svg>
